<?xml version="1.0" encoding="UTF-8" standalone="no"?>
<!-- Created with Inkscape (http://www.inkscape.org/) -->

<svg
   width="256"
   height="64"
   viewBox="0 0 67.733332 16.933333"
   version="1.1"
   id="svg1"
   inkscape:version="1.3 (1:1.3+202307231459+0e150ed6c4)"
   sodipodi:docname="slimbook-black.svg"
   inkscape:export-filename="slimbook-logo-text.png"
   inkscape:export-xdpi="82.5"
   inkscape:export-ydpi="82.5"
   xmlns:inkscape="http://www.inkscape.org/namespaces/inkscape"
   xmlns:sodipodi="http://sodipodi.sourceforge.net/DTD/sodipodi-0.dtd"
   xmlns="http://www.w3.org/2000/svg"
   xmlns:svg="http://www.w3.org/2000/svg">
  <sodipodi:namedview
     id="namedview1"
     pagecolor="#ffffff"
     bordercolor="#666666"
     borderopacity="1.0"
     inkscape:showpageshadow="false"
     inkscape:pageopacity="0.0"
     inkscape:pagecheckerboard="false"
     inkscape:deskcolor="#d1d1d1"
     inkscape:document-units="px"
     inkscape:export-bgcolor="#ffffff00"
     inkscape:zoom="1.1237919"
     inkscape:cx="107.22626"
     inkscape:cy="44.492224"
     inkscape:window-width="1366"
     inkscape:window-height="679"
     inkscape:window-x="0"
     inkscape:window-y="0"
     inkscape:window-maximized="1"
     inkscape:current-layer="layer1" />
  <defs
     id="defs1" />
  <g
     inkscape:label="Capa 1"
     inkscape:groupmode="layer"
     id="layer1">
    <g
       id="g2"
       transform="matrix(0.1622482,0,0,0.1622482,29.727074,5.2831005)">
      <path
         id="path2-8"
         d="m 161.96254,-16.54407 c -6.65734,0 -12.29685,2.40032 -16.91457,7.07885 -4.67857,4.67855 -7.07889,10.317 -7.07889,16.91461 0,6.65844 2.40032,12.23713 7.07889,16.91605 4.67857,4.67855 10.25723,7.07885 16.91457,7.07885 6.65846,0 12.23712,-2.4003 16.91607,-7.07885 4.73788,-4.61916 7.13823,-10.25761 7.13823,-16.91605 0,-6.59761 -2.40035,-12.23606 -7.13823,-16.91461 -4.67895,-4.67853 -10.25761,-7.07885 -16.91607,-7.07885 z m 0,8.03839 c 4.37875,0 8.15857,1.5595 11.2776,4.67852 3.11948,3.11942 4.67896,6.8978 4.67896,11.27655 0,4.38021 -1.50018,8.15859 -4.67896,11.33735 -3.11903,3.11903 -6.89885,4.61918 -11.2776,4.61918 -4.37871,0 -8.21689,-1.50015 -11.33589,-4.61918 -3.12051,-3.11941 -4.61914,-6.95714 -4.61914,-11.33735 0,-4.37875 1.49863,-8.15713 4.61914,-11.27655 3.17844,-3.17839 6.95718,-4.67852 11.33589,-4.67852 z"
         style="fill:#000000;fill-opacity:1;fill-rule:nonzero;stroke:none;stroke-width:0.371046" />
      <path
         id="path3-8"
         d="m 207.52909,15.2963 c -1.0193,1.33651 -1.37846,2.79732 -1.15102,4.4789 0.26237,1.63337 0.95954,2.99437 2.24821,3.9769 0.66639,0.50907 1.39552,0.83783 2.15055,1.03633 0.80188,0.23488 1.53355,0.26382 2.29013,0.16259 0.75654,-0.10272 1.4901,-0.37252 2.20178,-0.81038 0.67533,-0.39108 1.71017,-0.68532 2.21885,-1.35208 l 5.92531,4.61918 c -2.36397,3.10046 -5.46146,4.88743 -9.2443,5.39762 -3.86705,0.5217 -7.32817,-0.38107 -10.38081,-2.70902 -3.05225,-2.32758 -4.83919,-5.42509 -5.36124,-9.29215 -0.50868,-3.78432 0.39444,-7.24395 2.75835,-10.34444 l 7.23689,-9.49216 c 1.0553,-1.384 1.41449,-2.84371 1.18698,-4.52641 -0.26233,-1.63334 -1.03189,-2.89862 -2.36837,-3.91788 -0.61893,-0.47235 -1.13616,-0.70278 -1.89125,-0.90129 -0.75396,-0.19703 -1.18139,-0.23635 -2.17282,-0.24934 -1.66678,-0.022 -2.24075,0.36511 -2.95244,0.80294 -0.67384,0.38999 -1.24376,0.93764 -1.75244,1.60591 l -5.98173,-4.96129 c 2.36399,-3.10046 5.46153,-4.88743 9.29217,-5.36127 3.83071,-0.47418 7.24288,0.39257 10.29661,2.72054 3.10044,2.36393 4.88743,5.46144 5.44551,9.28175 0.50868,3.7832 -0.3941,7.24285 -2.75837,10.34295 z"
         style="fill:#e6e6e6;fill-opacity:1;fill-rule:nonzero;stroke:none;stroke-width:0.371046" />
      <path
         id="path4-5"
         d="m 214.13223,11.34388 c 1.68012,0 3.19321,0.42485 4.39318,1.62335 1.13952,1.19997 1.79883,2.57987 1.79883,4.19877 -0.0827,1.77992 -0.78989,3.30641 -1.92605,4.61065 -0.98295,1.13056 -2.19181,1.85374 -3.43519,2.53797 l 0.34618,8.29217 c 2.0757,-0.28981 7.2095,-2.6686 9.90809,-5.36721 2.75984,-2.75986 4.13979,-6.05848 4.13979,-9.89808 0,-3.83811 -1.37995,-7.13673 -4.13979,-9.89657 -2.69859,-2.69864 -5.9976,-4.07857 -9.89771,-4.07857 H 203.3837 c -1.73946,0 -3.11934,-0.59998 -4.31931,-1.79995 -1.13918,-1.20033 -1.67977,-2.57877 -1.67977,-4.25852 0,-0.77995 0.12016,-1.5595 0.42037,-2.28008 0.29986,-0.72021 0.72023,-1.37956 1.2594,-1.91869 0.59994,-0.60037 1.19997,-1.0204 1.97985,-1.32056 0.71874,-0.30019 1.49869,-0.41893 2.33946,-0.41893 v -8.03836 c -3.89894,0 -7.19791,1.37992 -9.89803,4.13939 -2.699,2.75838 -4.07857,5.99763 -4.07857,9.83723 0,3.89897 1.37957,7.19759 4.07857,9.95745 2.70012,2.69863 5.99909,4.07854 9.89803,4.07854 z"
         style="fill:#000000;fill-opacity:1;fill-rule:nonzero;stroke:none;stroke-width:0.371046" />
      <path
         style="font-size:100.334px;line-height:1.35;font-family:Strasua;-inkscape-font-specification:'Strasua, Normal';font-variant-ligatures:none;fill:#000000;stroke-width:2.38191"
         d="m -177.586,55.62607 v -7.7746 h 15.60633 q 3.60145,0 5.94525,-1.71498 2.34382,-1.71498 2.34382,-4.45894 0,-1.37198 -0.62883,-2.5153 -0.62883,-1.14333 -1.71499,-1.94365 -1.08614,-0.85749 -2.62965,-1.31481 -1.54347,-0.45734 -3.31561,-0.45734 h -3.54429 q -2.74397,0 -5.08778,-0.85749 -2.3438,-0.91466 -4.05879,-2.51529 -1.71497,-1.65783 -2.68681,-3.83013 -0.97182,-2.22947 -0.97182,-4.91628 0,-2.62964 0.97182,-4.85912 1.02898,-2.22947 2.85831,-3.88727 1.82931,-1.65783 4.40177,-2.57249 2.5725,-0.97182 5.65946,-0.97182 h 14.80597 v 7.77458 h -15.20614 q -2.45815,0 -3.88728,1.37198 -1.42916,1.31483 -1.42916,3.20131 0,2.05797 1.42916,3.42996 1.48631,1.37198 3.88728,1.37198 h 4.40179 q 2.97263,0 5.48793,1.02899 2.51531,0.97183 4.34462,2.80114 1.8293,1.8293 2.85831,4.34461 1.02899,2.5153 1.02899,5.48794 0,3.02981 -1.08616,5.5451 -1.08616,2.51532 -3.14415,4.34462 -2.00082,1.82932 -4.80194,2.85831 -2.80113,1.02899 -6.23109,1.02899 z m 34.81409,0 V 11.03656 h 7.71742 v 36.81491 h 12.1192 v 7.7746 z m 22.98066,0 V 11.03656 h 7.77458 v 44.58951 z m 38.24398,-42.5887 q 0.80034,-1.25764 2.00082,-1.77216 1.20049,-0.57164 2.45812,-0.57164 1.48633,0 2.40099,1.08616 0.91467,1.02899 0.91467,2.80114 v 27.15385 l 19.09343,-28.69735 q 0.80034,-1.25764 1.94365,-1.77216 1.20048,-0.57164 2.51529,-0.57164 1.48633,0 2.401,1.08616 0.91466,1.02899 0.91466,2.80114 v 41.0452 h -7.7746 V 25.49956 l -17.37845,27.43969 q -0.97184,1.54348 -2.11515,2.11515 -1.14334,0.57167 -2.34382,0.57167 -1.02899,0 -1.94365,-0.343 -0.91464,-0.40017 -1.60063,-1.08616 -0.68599,-0.68599 -1.08616,-1.60065 -0.40017,-0.91466 -0.40017,-2.05798 V 25.49956 l -19.09346,30.12651 h -9.26088 z m 47.33347,5.65945 v 29.0975 h 6.80276 q 4.0016,0 6.51692,-1.31481 2.57247,-1.31483 2.57247,-4.11597 0,-2.80114 -1.71498,-4.17312 -1.71498,-1.37198 -4.28745,-1.37198 h -5.37361 v -7.71741 h 5.37361 q 2.57247,0 3.94445,-1.25766 1.42916,-1.25765 1.42916,-4.00162 0,-2.74396 -1.94365,-3.94445 -1.88648,-1.20048 -6.51692,-1.20048 z m 17.03546,13.434 q 1.77215,0.80034 2.97263,2.00082 1.25766,1.14331 2.00083,2.5153 0.74314,1.37198 1.02898,2.85831 0.343,1.48631 0.343,2.85829 0,2.74396 -1.08616,5.14496 -1.02899,2.40097 -3.25846,4.23027 -2.17232,1.77215 -5.5451,2.80114 -3.31564,1.02898 -7.88893,1.02898 h -13.37683 v -44.5895 h 15.03466 q 7.48875,0 11.4332,2.85831 3.94445,2.85829 3.94445,8.68924 0,1.31481 -0.28582,2.74397 -0.28584,1.37198 -0.91466,2.68679 -0.62882,1.25766 -1.71498,2.34382 -1.08616,1.08614 -2.68681,1.8293 z m 32.52746,23.49525 q -4.91629,0 -9.08941,-1.71498 -4.11595,-1.77215 -7.08859,-4.85911 -2.97261,-3.08699 -4.63044,-7.20293 -1.65782,-4.17313 -1.65782,-8.97507 0,-4.80193 1.60065,-8.80356 1.65783,-4.00162 4.57329,-6.91708 2.97264,-2.91549 7.08858,-4.51612 4.17313,-1.60066 9.20374,-1.60066 h 1.31483 q 5.08776,0 9.20371,1.65781 4.1731,1.60065 7.0886,4.51612 2.97266,2.91546 4.57327,6.91708 1.60068,4.00163 1.60068,8.74641 0,4.80194 -1.65783,8.97507 -1.6578,4.11594 -4.68761,7.20293 -2.97266,3.08696 -7.08861,4.85911 -4.11595,1.71498 -9.03221,1.71498 z m 0,-36.81493 q -3.20131,0 -5.8881,1.08616 -2.6868,1.08614 -4.68762,3.02979 -1.94365,1.94365 -3.08696,4.63046 -1.08616,2.68679 -1.08616,5.94525 0,3.14414 1.08616,5.77378 1.08616,2.62964 3.02979,4.57329 1.94365,1.88647 4.63046,2.97261 2.74397,1.02899 6.00243,1.02899 h 1.31483 q 3.31561,0 6.00242,-1.08614 2.74397,-1.08616 4.68762,-2.97263 1.94365,-1.94365 2.97261,-4.5733 1.08618,-2.62961 1.08618,-5.7166 0,-3.20128 -1.08618,-5.8881 -1.08612,-2.68679 -3.08694,-4.63044 -1.94365,-2.00082 -4.68761,-3.08696 -2.68682,-1.08616 -5.8881,-1.08616 z m 49.79154,36.81493 q -4.91633,0 -9.0894,-1.71498 -4.11597,-1.77215 -7.08863,-4.85911 -2.9726,-3.08699 -4.63042,-7.20293 -1.65783,-4.17313 -1.65783,-8.97507 0,-4.80193 1.60063,-8.80356 1.65783,-4.00162 4.57331,-6.91708 2.97262,-2.91549 7.08859,-4.51612 4.17314,-1.60066 9.20375,-1.60066 h 1.31477 q 5.08783,0 9.20375,1.65781 4.17312,1.60065 7.08857,4.51612 2.97265,2.91546 4.57326,6.91708 1.60068,4.00163 1.60068,8.74641 0,4.80194 -1.65781,8.97507 -1.65782,4.11594 -4.68763,7.20293 -2.9726,3.08696 -7.08857,4.85911 -4.11592,1.71498 -9.03225,1.71498 z m 0,-36.81493 q -3.2013,0 -5.8881,1.08616 -2.68681,1.08614 -4.68763,3.02979 -1.94365,1.94365 -3.08699,4.63046 -1.08613,2.68679 -1.08613,5.94525 0,3.14414 1.08613,5.77378 1.08619,2.62964 3.02979,4.57329 1.94367,1.88647 4.63049,2.97261 2.74394,1.02899 6.00244,1.02899 h 1.31477 q 3.31565,0 6.00244,-1.08614 2.74397,-1.08616 4.68762,-2.97263 1.94363,-1.94365 2.97266,-4.5733 1.08614,-2.62961 1.08614,-5.7166 0,-3.20128 -1.08614,-5.8881 -1.08618,-2.68679 -3.08701,-4.63044 -1.9436,-2.00082 -4.68761,-3.08696 -2.68682,-1.08616 -5.8881,-1.08616 z m 46.19005,18.80763 -10.40422,16.00647 q -0.80033,1.31484 -2.00082,1.82933 -1.14333,0.45732 -2.4581,0.45732 -1.48633,0 -2.40101,-1.02899 -0.91464,-1.02898 -0.91464,-2.80114 v -41.0452 h 7.77457 v 30.12649 l 19.09348,-30.12649 h 9.26088 l -13.31972,19.6651 18.17884,24.92441 H 123.6214 Z"
         id="text1-0"
         aria-label="SLIMBOOK" />
    </g>
  </g>
</svg>
