<?xml version="1.0" encoding="UTF-8" standalone="no"?>
<!-- Created with Inkscape (http://www.inkscape.org/) -->

<svg
   width="256"
   height="64"
   viewBox="0 0 67.733332 16.933333"
   version="1.1"
   id="svg1"
   inkscape:version="1.3 (1:1.3+202307231459+0e150ed6c4)"
   sodipodi:docname="slimbook-white.svg"
   inkscape:export-filename="slimbook-logo.png"
   inkscape:export-xdpi="82.5"
   inkscape:export-ydpi="82.5"
   xmlns:inkscape="http://www.inkscape.org/namespaces/inkscape"
   xmlns:sodipodi="http://sodipodi.sourceforge.net/DTD/sodipodi-0.dtd"
   xmlns="http://www.w3.org/2000/svg"
   xmlns:svg="http://www.w3.org/2000/svg">
  <sodipodi:namedview
     id="namedview1"
     pagecolor="#ffffff"
     bordercolor="#666666"
     borderopacity="1.0"
     inkscape:showpageshadow="false"
     inkscape:pageopacity="0.0"
     inkscape:pagecheckerboard="false"
     inkscape:deskcolor="#d1d1d1"
     inkscape:document-units="px"
     inkscape:export-bgcolor="#ffffff00"
     inkscape:zoom="1.5892817"
     inkscape:cx="98.472159"
     inkscape:cy="79.910314"
     inkscape:window-width="1366"
     inkscape:window-height="679"
     inkscape:window-x="0"
     inkscape:window-y="0"
     inkscape:window-maximized="1"
     inkscape:current-layer="layer1" />
  <defs
     id="defs1" />
  <g
     inkscape:label="Capa 1"
     inkscape:groupmode="layer"
     id="layer1">
    <g
       id="g1"
       transform="matrix(1.0071343,0,0,1.0071343,-0.63298614,0.58074229)">
      <path
         id="path2"
         d="m 56.236985,2.0038225 c -1.072492,0 -1.981015,0.3866848 -2.724919,1.1403951 -0.753708,0.7537041 -1.140399,1.6620538 -1.140399,2.7249203 0,1.0726668 0.386691,1.971389 1.140399,2.725158 0.753708,0.7537092 1.652427,1.140394 2.724919,1.140394 1.07267,0 1.971389,-0.3866848 2.725157,-1.140394 0.763271,-0.7441416 1.149959,-1.6524912 1.149959,-2.725158 0,-1.0628665 -0.386688,-1.9712162 -1.149959,-2.7249203 C 58.208374,2.3905073 57.309655,2.0038225 56.236985,2.0038225 Z m 0,1.2949706 c 0.70541,0 1.314337,0.2512385 1.816811,0.7537093 0.502537,0.5025305 0.753772,1.1112237 0.753772,1.8166355 0,0.7056473 -0.241671,1.3143416 -0.753772,1.8264357 -0.502474,0.5024708 -1.111401,0.7441457 -1.816811,0.7441457 -0.705411,0 -1.32373,-0.2416749 -1.8262,-0.7441457 -0.502706,-0.5025304 -0.744136,-1.1207884 -0.744136,-1.8264357 0,-0.7054118 0.24143,-1.314105 0.744136,-1.8166355 0.512038,-0.5120344 1.120789,-0.7537093 1.8262,-0.7537093 z"
         style="fill:#ffffff;fill-opacity:1;fill-rule:nonzero;stroke:none;stroke-width:0.0597751" />
      <path
         id="path3"
         d="m 63.577702,7.1332643 c -0.164206,0.2153132 -0.222063,0.4506497 -0.185422,0.7215525 0.04225,0.2631292 0.154579,0.4823837 0.36218,0.6406701 0.107351,0.082005 0.224807,0.134974 0.346452,0.1669529 0.12918,0.037839 0.247052,0.042489 0.368935,0.026193 0.121883,-0.016543 0.24006,-0.060019 0.35471,-0.1305492 0.108788,-0.062993 0.275499,-0.1104034 0.357454,-0.2178183 L 66.136567,9.08441 C 65.755735,9.583889 65.256734,9.8717698 64.647321,9.9539618 64.024342,10.038014 63.46676,9.892574 62.974983,9.5175393 62.483275,9.1425694 62.195398,8.6435656 62.11129,8.0205876 62.029347,7.4109376 62.174838,6.8535912 62.555665,6.354108 L 63.721518,4.8249336 C 63.891523,4.6019693 63.949388,4.3668149 63.912742,4.0957342 63.87049,3.8326018 63.746503,3.62877 63.531199,3.464565 63.431489,3.388465 63.34816,3.3513457 63.226518,3.319372 63.105055,3.287624 63.036196,3.281296 62.876478,3.279187 62.607965,3.275687 62.515492,3.338013 62.400842,3.4085407 62.29229,3.4713587 62.200476,3.5595927 62.118523,3.6672482 L 61.154887,2.8679939 c 0.380827,-0.4994863 0.879833,-0.787364 1.496953,-0.863695 0.617119,-0.076398 1.166819,0.06324 1.658764,0.4382723 0.499488,0.3808278 0.78736,0.8798326 0.87727,1.495283 0.08194,0.6094689 -0.06348,1.1668112 -0.444374,1.6662389 z"
         style="fill:#999999;fill-opacity:1;fill-rule:nonzero;stroke:none;stroke-width:0.0597751" />
      <path
         id="path4"
         d="m 64.641462,6.4965407 c 0.270666,0 0.514423,0.068435 0.70774,0.2615161 0.18357,0.1933115 0.289789,0.4156184 0.289789,0.6764205 -0.01334,0.2867399 -0.127258,0.5326565 -0.310293,0.7427671 -0.158344,0.1821357 -0.35309,0.2986389 -0.553401,0.4088644 l 0.05577,1.3358597 c 0.334382,-0.046686 1.161438,-0.4299051 1.596181,-0.8646518 0.444608,-0.4446107 0.666913,-0.976011 0.666913,-1.5945662 0,-0.6183166 -0.222305,-1.1497221 -0.666913,-1.5943307 C 65.992506,5.4336731 65.461041,5.2113683 64.832739,5.2113683 H 62.90989 c -0.28023,0 -0.50253,-0.096665 -0.695847,-0.2899713 -0.183513,-0.1933722 -0.270601,-0.4154384 -0.270601,-0.6860387 0,-0.1256491 0.01936,-0.2512395 0.06773,-0.3673208 0.0483,-0.1160238 0.116024,-0.2222493 0.202881,-0.3090997 0.09665,-0.096716 0.193317,-0.1643819 0.31896,-0.2127402 0.115788,-0.048363 0.241436,-0.067489 0.376887,-0.067489 V 1.9837344 c -0.628126,0 -1.159586,0.2223059 -1.59457,0.6668569 -0.434808,0.4443699 -0.657053,0.9662097 -0.657053,1.584767 0,0.6281189 0.222245,1.1595223 0.657053,1.6041289 0.434984,0.4347466 0.966444,0.6570525 1.59457,0.6570525 z"
         style="fill:#ffffff;fill-opacity:1;fill-rule:nonzero;stroke:none;stroke-width:0.0597751" />
      <path
         style="font-size:100.334px;line-height:1.35;font-family:Strasua;-inkscape-font-specification:'Strasua, Normal';font-variant-ligatures:none;fill:#ffffff;stroke-width:0.383724"
         d="m 1.5360911,13.630346 v -1.252474 h 2.5141617 q 0.5801905,0 0.9577739,-0.276281 0.3775866,-0.276281 0.3775866,-0.718329 0,-0.221028 -0.1013017,-0.405216 Q 5.1830057,10.79386 5.0080265,10.664925 4.8330499,10.526785 4.5843936,10.453111 4.3357417,10.379439 4.0502527,10.379439 H 3.4792706 q -0.4420509,0 -0.8196345,-0.138141 Q 2.2820516,10.093947 2.0057697,9.8360842 1.7294888,9.5690106 1.572926,9.2190547 1.4163686,8.8598901 1.4163686,8.4270456 1.4163686,8.003414 1.572926,7.6442494 1.7386949,7.2850838 2.0333983,7.0180122 2.328097,6.7509396 2.7425182,6.6035924 3.1569442,6.4470302 3.6542494,6.4470302 H 6.039476 V 7.6995036 H 3.5897823 q -0.3960052,0 -0.6262368,0.2210281 -0.2302352,0.2118143 -0.2302352,0.5157237 0,0.3315375 0.2302352,0.5525615 0.2394433,0.221025 0.6262368,0.221025 h 0.7091238 q 0.4788892,0 0.8840989,0.1657687 0.405216,0.1565622 0.6999138,0.4512598 0.2946988,0.2947026 0.4604706,0.6999136 0.165769,0.405215 0.165769,0.884099 0,0.4881 -0.1749786,0.893316 -0.1749795,0.405209 -0.5065186,0.699912 -0.3223291,0.294699 -0.7735868,0.460468 -0.4512587,0.165767 -1.0038216,0.165767 z m 5.6085113,0 V 6.4470282 H 8.387869 v 5.9308438 h 1.95239 v 1.252474 z m 3.7021586,0 V 6.4470282 h 1.252476 v 7.1833178 z m 6.161063,-6.860988 q 0.128934,-0.2026055 0.322329,-0.2854909 0.193399,-0.092097 0.396001,-0.092097 0.239447,0 0.386796,0.1749795 0.147354,0.1657667 0.147354,0.4512577 v 4.3744587 l 3.075929,-4.6231108 q 0.128934,-0.2026056 0.31312,-0.285491 0.193396,-0.092108 0.40521,-0.092108 0.239447,0 0.386799,0.1749785 0.147352,0.1657677 0.147352,0.4512587 V 13.63033 H 21.336233 V 8.7769861 l -2.799648,4.4205119 q -0.156562,0.248652 -0.340748,0.34075 -0.184191,0.09209 -0.377588,0.09209 -0.165768,0 -0.313119,-0.05526 -0.147348,-0.06445 -0.25786,-0.174977 -0.110509,-0.11051 -0.174979,-0.257861 -0.06445,-0.147352 -0.06445,-0.331541 V 8.7769903 l -3.075939,4.8533457 h -1.491916 z m 7.625369,0.9117282 v 4.6875778 h 1.095916 q 0.644654,0 1.04987,-0.211817 0.41442,-0.211814 0.41442,-0.663075 0,-0.451259 -0.276278,-0.672284 -0.276281,-0.221026 -0.690704,-0.221026 H 25.360734 V 9.3571953 h 0.865683 q 0.414423,0 0.635447,-0.2026086 0.230235,-0.2026025 0.230235,-0.6446577 0,-0.44205 -0.31312,-0.6354449 -0.303909,-0.1933979 -1.04987,-0.1933979 z m 2.744393,2.1642067 q 0.28549,0.1289309 0.478889,0.3223271 0.202607,0.184185 0.322331,0.405215 0.119718,0.221025 0.165766,0.460467 0.05526,0.239442 0.05526,0.46047 0,0.44205 -0.174977,0.828843 -0.165768,0.386794 -0.524934,0.681497 -0.34996,0.285489 -0.893312,0.451256 -0.534143,0.165769 -1.270897,0.165769 H 23.380717 V 6.4378174 h 2.422068 q 1.206428,0 1.841876,0.4604716 0.635446,0.4604715 0.635446,1.3998278 0,0.2118122 -0.04605,0.442049 -0.04605,0.221025 -0.14735,0.4328423 -0.101305,0.2026025 -0.276282,0.377582 -0.174978,0.1749796 -0.432843,0.2947028 z m 5.24014,3.7850531 q -0.792011,0 -1.464295,-0.276278 -0.663076,-0.285493 -1.141965,-0.782801 -0.478883,-0.497304 -0.745959,-1.160382 -0.26707,-0.672284 -0.26707,-1.445873 0,-0.7735854 0.257862,-1.4182431 0.267073,-0.6446577 0.73675,-1.1143348 0.478888,-0.4696792 1.141965,-0.727542 0.672283,-0.2578639 1.482712,-0.2578639 h 0.211815 q 0.819634,0 1.48271,0.2670736 0.672284,0.2578639 1.141965,0.727542 0.478886,0.4696792 0.736747,1.1143348 0.257865,0.6446577 0.257865,1.4090334 0,0.773589 -0.267073,1.445871 -0.267074,0.663078 -0.755167,1.160384 -0.47889,0.497307 -1.141966,0.782799 -0.663075,0.27628 -1.455081,0.27628 z m 0,-5.9308424 q -0.51573,0 -0.94857,0.1749805 -0.432839,0.1749785 -0.755166,0.4880997 -0.313124,0.3131181 -0.497307,0.7459573 -0.174981,0.4328393 -0.174981,0.9577769 0,0.506517 0.174981,0.930145 0.17498,0.423634 0.488095,0.736753 0.31312,0.303908 0.745961,0.478888 0.442052,0.165768 0.966987,0.165768 h 0.211815 q 0.53414,0 0.966984,-0.174978 0.442052,-0.174981 0.755172,-0.47889 0.313118,-0.313119 0.478889,-0.736749 0.174974,-0.423632 0.174974,-0.920937 0,-0.5157279 -0.174974,-0.9485671 Q 34.855604,8.6849095 34.533278,8.3717884 34.220156,8.0494626 33.778108,7.8744841 33.345266,7.6995036 32.829541,7.6995036 Z m 8.021356,5.9308424 q -0.792006,0 -1.464295,-0.276278 -0.663072,-0.285493 -1.14196,-0.782801 -0.478889,-0.497304 -0.745959,-1.160382 -0.267073,-0.672284 -0.267073,-1.445873 0,-0.7735854 0.257861,-1.4182431 0.267073,-0.6446577 0.736751,-1.1143348 0.478889,-0.4696792 1.141964,-0.727542 0.672289,-0.2578639 1.482711,-0.2578639 h 0.211816 q 0.819634,0 1.482711,0.2670736 0.672283,0.2578639 1.14196,0.727542 0.478891,0.4696792 0.736756,1.1143348 0.257857,0.6446577 0.257857,1.4090334 0,0.773589 -0.267071,1.445871 -0.267074,0.663078 -0.755167,1.160384 -0.478887,0.497307 -1.141966,0.782799 -0.663071,0.27628 -1.45508,0.27628 z m 0,-5.9308424 q -0.515728,0 -0.948568,0.1749805 -0.432839,0.1749785 -0.75517,0.4880997 -0.313115,0.3131181 -0.497308,0.7459573 -0.174973,0.4328393 -0.174973,0.9577769 0,0.506517 0.174973,0.930145 0.174979,0.423634 0.488099,0.736753 0.313123,0.303908 0.745963,0.478888 0.442049,0.165768 0.966984,0.165768 h 0.211816 q 0.534144,0 0.96698,-0.174978 0.442057,-0.174981 0.755171,-0.47889 0.313118,-0.313119 0.478891,-0.736749 0.174982,-0.423632 0.174982,-0.920937 0,-0.5157279 -0.174982,-0.9485671 Q 42.876962,8.6849095 42.554635,8.3717884 42.241515,8.0494626 41.799463,7.8744841 41.366628,7.6995036 40.850898,7.6995036 Z m 7.44117,3.0298894 -1.676107,2.578628 q -0.128933,0.211814 -0.322331,0.294699 -0.184188,0.07367 -0.396001,0.07367 -0.239446,0 -0.386796,-0.165768 -0.147353,-0.165771 -0.147353,-0.451261 V 6.4470241 h 1.252481 v 4.8533449 l 3.075933,-4.8533449 h 1.491919 l -2.145785,3.1680269 2.928585,4.01529 h -1.69453 z"
         id="text1"
         aria-label="SLIMBOOK" />
    </g>
  </g>
</svg>
